<?xml version="1.0" encoding="UTF-8"?>
<svg version="1.1" xmlns="http://www.w3.org/2000/svg" width="354" height="340">
<path d="M0 0 C116.82 0 233.64 0 354 0 C354 112.2 354 224.4 354 340 C237.18 340 120.36 340 0 340 C0 227.8 0 115.6 0 0 Z " fill="#0958A0" transform="translate(0,0)"/>
<path d="M0 0 C116.82 0 233.64 0 354 0 C354 112.2 354 224.4 354 340 C237.18 340 120.36 340 0 340 C0 227.8 0 115.6 0 0 Z M136 16 C136 16.66 136 17.32 136 18 C135.19820313 17.97679687 134.39640625 17.95359375 133.5703125 17.9296875 C126.3761923 17.81549512 119.39619117 18.1390027 112.25 18.9375 C111.46383301 19.02435059 110.67766602 19.11120117 109.86767578 19.20068359 C105.80597769 19.62833624 105.80597769 19.62833624 102 21 C102 21.66 102 22.32 102 23 C100.80375 22.95875 99.6075 22.9175 98.375 22.875 C94.53987332 22.74275425 91.61444853 23.75935286 88 25 C85.73524396 25.50711419 83.46385565 25.98529467 81.1875 26.4375 C76.38106288 27.43926268 71.77351134 28.57718376 67.16015625 30.25390625 C65.36995882 30.87222037 63.54285648 31.38245691 61.7109375 31.86328125 C57.7229551 33.08486323 54.24769883 34.7063568 50.5625 36.625 C49.92634766 36.94984375 49.29019531 37.2746875 48.63476562 37.609375 C47.08700056 38.40071353 45.5430813 39.1995667 44 40 C44 40.66 44 41.32 44 42 C43.44054687 42.23589844 42.88109375 42.47179687 42.3046875 42.71484375 C31.51891929 48.7292806 23.41874961 61.35614102 20 73 C20 74.32 20 75.64 20 77 C19.34 77 18.68 77 18 77 C16.70931859 83.9490287 16.81616195 90.8882367 16.8125 97.9375 C16.80025391 99.17435547 16.78800781 100.41121094 16.77539062 101.68554688 C16.76495771 108.19220987 17.07635225 113.78513805 19 120 C19.35110255 121.31741278 19.69608264 122.63647133 20.03515625 123.95703125 C20.37417969 125.22933594 20.71320312 126.50164062 21.0625 127.8125 C21.23587891 128.46669922 21.40925781 129.12089844 21.58789062 129.79492188 C22.32494073 132.55956574 23.09490806 135.28472419 24 138 C24.66 138 25.32 138 26 138 C26.06058594 138.60328125 26.12117188 139.2065625 26.18359375 139.828125 C26.30927734 141.02695313 26.30927734 141.02695313 26.4375 142.25 C26.51871094 143.03890625 26.59992187 143.8278125 26.68359375 144.640625 C26.97634993 146.82364639 27.42064419 148.8773182 28 151 C28.66 151 29.32 151 30 151 C30.33 153.64 30.66 156.28 31 159 C31.66 159 32.32 159 33 159 C32.95875 159.71542969 32.9175 160.43085938 32.875 161.16796875 C33.01360313 164.30819586 33.77103509 166.43211348 35 169.3125 C35.37125 170.19550781 35.7425 171.07851562 36.125 171.98828125 C36.41375 172.65214844 36.7025 173.31601563 37 174 C37.66 174 38.32 174 39 174 C39.1546875 175.6396875 39.1546875 175.6396875 39.3125 177.3125 C40.04467608 181.23962622 40.34583643 181.46548966 43 184 C44.01147461 185.79003906 44.01147461 185.79003906 44.90234375 187.765625 C45.40217773 188.85423828 45.40217773 188.85423828 45.91210938 189.96484375 C46.25048828 190.71894531 46.58886719 191.47304687 46.9375 192.25 C49.39321706 197.67245039 52.00700912 202.85359385 55 208 C55.70286303 209.65172812 56.38655243 211.31301918 57 213 C57.66 213 58.32 213 59 213 C59.495 215.475 59.495 215.475 60 218 C60.66 218 61.32 218 62 218 C62.15662109 219.07314453 62.15662109 219.07314453 62.31640625 220.16796875 C63.07522267 223.31163677 64.26493706 225.55215773 65.9375 228.3125 C66.46214844 229.19550781 66.98679688 230.07851562 67.52734375 230.98828125 C68.01332031 231.65214844 68.49929687 232.31601563 69 233 C69.66 233 70.32 233 71 233 C71.103125 233.556875 71.20625 234.11375 71.3125 234.6875 C72.14178408 237.4769101 73.34299056 239.6139064 75 242 C75.66 242 76.32 242 77 242 C77.103125 242.556875 77.20625 243.11375 77.3125 243.6875 C78.14178408 246.4769101 79.34299056 248.6139064 81 251 C81.66 251 82.32 251 83 251 C83.0825 251.5775 83.165 252.155 83.25 252.75 C84.21797787 255.6539336 85.68694284 257.03740604 88 259 C88.66 259 89.32 259 90 259 C90.226875 259.84820312 90.45375 260.69640625 90.6875 261.5703125 C92.2339934 265.61144703 94.33526273 268.50981751 97 271.875 C97.67675781 272.76445313 97.67675781 272.76445313 98.3671875 273.671875 C99.52452598 275.157925 100.75699731 276.58482464 102 278 C102.66 278 103.32 278 104 278 C104.26167969 278.57878906 104.52335937 279.15757812 104.79296875 279.75390625 C106.07292739 282.13570631 107.51356054 283.92316646 109.3125 285.9375 C109.93125 286.63230469 110.55 287.32710938 111.1875 288.04296875 C112.68216333 289.6568186 114.23972426 291.21217483 115.8125 292.75 C117.8643863 294.86051162 118.71180149 296.42360299 120 299 C123.60887182 302.85866623 127.50500759 306.11523796 131.6875 309.3125 C132.26822266 309.76689453 132.84894531 310.22128906 133.44726562 310.68945312 C136.38597789 313.19298355 136.38597789 313.19298355 140 314 C140 314.66 140 315.32 140 316 C141.98 316.33 143.96 316.66 146 317 C146 317.66 146 318.32 146 319 C148.31 319.33 150.62 319.66 153 320 C153 320.66 153 321.32 153 322 C160.95412022 325.02456615 168.1775447 325.37114033 176.625 325.1875 C178.41744141 325.16719727 178.41744141 325.16719727 180.24609375 325.14648438 C183.164548 325.11146292 186.08202348 325.06234993 189 325 C189 324.34 189 323.68 189 323 C189.70125 322.96261719 190.4025 322.92523438 191.125 322.88671875 C197.32251602 322.45727131 202.30009796 321.47354239 208 319 C208 318.34 208 317.68 208 317 C208.84111328 316.83564453 208.84111328 316.83564453 209.69921875 316.66796875 C219.55889438 313.80548228 227.56279284 305.88964483 234.0390625 298.28515625 C236.3751209 295.56285712 238.77590973 292.90557814 241.1875 290.25 C242.00605469 289.34765625 242.82460937 288.4453125 243.66796875 287.515625 C245.08399644 285.98811775 246.52807666 284.48520186 248.01953125 283.03125 C250.40598542 280.5836047 252.42889205 277.9700551 254.5 275.25 C254.92434326 274.6936084 255.34868652 274.1372168 255.78588867 273.56396484 C257.19494047 271.71256296 258.59820363 269.85690076 260 268 C260.51256348 267.32163086 261.02512695 266.64326172 261.55322266 265.94433594 C263.14182708 263.83952037 264.72791972 261.73284653 266.3125 259.625 C266.80363281 258.97176758 267.29476562 258.31853516 267.80078125 257.64550781 C270.13474812 254.52985231 272.43143895 251.39738675 274.66796875 248.2109375 C276.39369887 245.83480658 277.95815402 244.03520981 280 242 C281.19788709 240.0372639 281.19788709 240.0372639 282.1875 237.9375 C282.70376953 236.89916016 282.70376953 236.89916016 283.23046875 235.83984375 C284.12862225 234.02486394 284.12862225 234.02486394 284 232 C284.598125 231.77699219 285.19625 231.55398437 285.8125 231.32421875 C288.67936457 229.5887418 289.49119499 227.78500987 291 224.8125 C292.68874284 221.53762148 294.37879958 218.3236105 296.3125 215.1875 C297.99195033 212.01520493 298.6536283 209.5503099 299 206 C299.66 206 300.32 206 301 206 C301 205.01 301 204.02 301 203 C301.66 203 302.32 203 303 203 C303.33 201.02 303.66 199.04 304 197 C304.66 197 305.32 197 306 197 C306.66 194.03 307.32 191.06 308 188 C308.66 188 309.32 188 310 188 C310 187.01 310 186.02 310 185 C310.66 185 311.32 185 312 185 C312.33 183.02 312.66 181.04 313 179 C313.66 179 314.32 179 315 179 C315.495 177.9275 315.99 176.855 316.5 175.75 C316.7784375 175.14671875 317.056875 174.5434375 317.34375 173.921875 C318.21542924 171.70757164 318.21542924 171.70757164 318 168 C318.66 168 319.32 168 320 168 C320.24234375 167.26136719 320.4846875 166.52273437 320.734375 165.76171875 C322.37646795 160.7912297 324.04024703 155.84045332 325.875 150.9375 C330.02526172 139.57368815 334.12478604 128.09574709 335.67578125 116.0546875 C336 114 336 114 337 113 C337.04063832 111.33382885 337.042721 109.66611905 337 108 C337.66 108 338.32 108 339 108 C339 101.73 339 95.46 339 89 C338.34 89 337.68 89 337 89 C336.67 84.71 336.34 80.42 336 76 C335.34 76 334.68 76 334 76 C333.67 73.69 333.34 71.38 333 69 C332.34 69 331.68 69 331 69 C330.92910156 68.15308594 330.85820312 67.30617187 330.78515625 66.43359375 C329.83787612 62.29101048 327.9245244 59.41613136 325.4375 56.0625 C324.99148438 55.45003418 324.54546875 54.83756836 324.0859375 54.20654297 C320.61888429 49.56528477 316.89761971 45.19305599 312 42 C311.34 42 310.68 42 310 42 C310 41.34 310 40.68 310 40 C307.89983377 38.82558465 305.79541245 37.66035988 303.6875 36.5 C303.09259766 36.16613281 302.49769531 35.83226563 301.88476562 35.48828125 C299.04171156 33.93174886 297.29339012 33 294 33 C294 32.34 294 31.68 294 31 C286.08032393 28.55404307 278.48629706 26.56047614 270.23046875 25.58984375 C267.57132605 25.10431709 265.45782101 24.46991107 262.94921875 23.54296875 C256.98148784 21.47473214 250.88057243 20.99145059 244.625 20.375 C242.30440308 20.13555312 239.98407413 19.89349039 237.6640625 19.6484375 C236.64779785 19.54708496 235.6315332 19.44573242 234.58447266 19.34130859 C232 19 232 19 229 18 C227.10529184 17.9314505 225.2083166 17.91519628 223.3125 17.9375 C222.31863281 17.94652344 221.32476562 17.95554687 220.30078125 17.96484375 C219.54152344 17.97644531 218.78226563 17.98804688 218 18 C218 17.34 218 16.68 218 16 C204.69638125 15.16674438 191.45329795 14.83743758 178.125 14.875 C177.21188049 14.87588623 176.29876099 14.87677246 175.35797119 14.87768555 C162.21758435 14.89264887 149.11308781 15.07978331 136 16 Z " fill="#2167A9" transform="translate(0,0)"/>
<path d="M0 0 C0.33 0 0.66 0 1 0 C1.03738281 0.86882812 1.07476562 1.73765625 1.11328125 2.6328125 C1.21189453 4.36144531 1.21189453 4.36144531 1.3125 6.125 C1.37050781 7.26195313 1.42851562 8.39890625 1.48828125 9.5703125 C2.0435897 13.29215084 3.28013109 15.67407704 5 19 C5.87068006 21.69674203 6.53457311 24.43097986 7.1875 27.1875 C7.36474609 27.89841797 7.54199219 28.60933594 7.72460938 29.34179688 C8.44511779 32.29894146 9 34.94530377 9 38 C9.66 38 10.32 38 11 38 C11.19335938 38.88042969 11.38671875 39.76085937 11.5859375 40.66796875 C11.84632812 41.82941406 12.10671875 42.99085938 12.375 44.1875 C12.63023438 45.33605469 12.88546875 46.48460937 13.1484375 47.66796875 C13.90121421 50.93722764 13.90121421 50.93722764 15.1015625 53.67578125 C16 56 16 56 16 60 C16.66 60 17.32 60 18 60 C18.37511719 60.96679688 18.75023438 61.93359375 19.13671875 62.9296875 C21.75440828 69.61120875 24.46739255 76.10212595 27.78515625 82.47265625 C29.21344372 85.44404531 30.35310606 88.47196026 31.5 91.5625 C33.31216145 96.4294479 35.40204748 100.84831875 38.08203125 105.29296875 C39 107 39 107 39 109 C39.66 109 40.32 109 41 109 C41.67119549 110.4562545 42.33681807 111.91507867 43 113.375 C43.37125 114.18710938 43.7425 114.99921875 44.125 115.8359375 C45 118 45 118 45 120 C45.66 120 46.32 120 47 120 C51.40774487 128.261959 51.40774487 128.261959 52 133 C52.66 133 53.32 133 54 133 C54.12375 133.639375 54.2475 134.27875 54.375 134.9375 C54.684375 135.9584375 54.684375 135.9584375 55 137 C55.66 137.33 56.32 137.66 57 138 C57 138.66 57 139.32 57 140 C57.66 140 58.32 140 59 140 C60.52448631 142.9826906 61.93940067 145.818202 63 149 C63.66 149 64.32 149 65 149 C65.99 152.465 65.99 152.465 67 156 C67.66 156 68.32 156 69 156 C69.33 157.32 69.66 158.64 70 160 C70.66 160 71.32 160 72 160 C75.03629806 163.19610322 77.15756208 166.12556159 79 170.125 C80.75292329 173.83337556 82.72323289 175.48527175 86 178 C87.07235455 179.30877918 88.11019053 180.64611338 89.125 182 C92.02643481 185.84961613 95.15054076 189.41692403 98.4375 192.9375 C112 207.52389295 112 207.52389295 112 211 C112.61875 211.061875 113.2375 211.12375 113.875 211.1875 C114.57625 211.455625 115.2775 211.72375 116 212 C116.66666667 213.66666667 117.33333333 215.33333333 118 217 C119.32762104 217.35540298 120.66238106 217.68430322 122 218 C124.359375 219.33984375 124.359375 219.33984375 126.75 220.9375 C127.54921875 221.46214844 128.3484375 221.98679687 129.171875 222.52734375 C129.77515625 223.01332031 130.3784375 223.49929688 131 224 C131 224.66 131 225.32 131 226 C131.55429688 226.11601562 132.10859375 226.23203125 132.6796875 226.3515625 C135.3349353 227.09360145 137.64074385 228.17994967 140.125 229.375 C147.54293357 232.79714002 154.8733885 235.11667266 163 236 C163 236.66 163 237.32 163 238 C109.21 238 55.42 238 0 238 C0 159.46 0 80.92 0 0 Z " fill="#FDFDFE" transform="translate(0,102)"/>
<path d="M0 0 C0.33 0 0.66 0 1 0 C1 75.9 1 151.8 1 230 C-52.79 230 -106.58 230 -162 230 C-162 229.67 -162 229.34 -162 229 C-148.3667426 224.59225513 -148.3667426 224.59225513 -142 224 C-142 223.34 -142 222.68 -142 222 C-141.32453125 221.82984375 -140.6490625 221.6596875 -139.953125 221.484375 C-134.82835747 220.09209712 -131.52633152 219.11405344 -128 215 C-126.64677249 213.88958952 -125.26939811 212.80824856 -123.875 211.75 C-123.19179687 211.22921875 -122.50859375 210.7084375 -121.8046875 210.171875 C-120 209 -120 209 -118 209 C-117.67 208.01 -117.34 207.02 -117 206 C-116.34 206 -115.68 206 -115 206 C-114.67 205.01 -114.34 204.02 -114 203 C-113.34 203 -112.68 203 -112 203 C-111.67 202.01 -111.34 201.02 -111 200 C-110.34 200 -109.68 200 -109 200 C-109 199.34 -109 198.68 -109 198 C-107.91733966 196.88241513 -106.82573569 195.77276069 -105.703125 194.6953125 C-103.49075304 192.49308904 -101.40550425 190.19080793 -99.3125 187.875 C-98.16201172 186.60269531 -98.16201172 186.60269531 -96.98828125 185.3046875 C-94.88886569 182.96709999 -94.88886569 182.96709999 -93 180 C-92.34 180 -91.68 180 -91 180 C-90.74089844 179.42894531 -90.48179687 178.85789062 -90.21484375 178.26953125 C-88.89057256 175.79557125 -87.35556635 173.84588964 -85.5625 171.6875 C-81.92785311 167.21768608 -78.46715567 162.64544373 -75.0625 158 C-74.3355896 157.01132935 -74.3355896 157.01132935 -73.59399414 156.00268555 C-71.09703072 152.6269709 -71.09703072 152.6269709 -69 149 C-68.34 149 -67.68 149 -67 149 C-66.7525 148.29875 -66.505 147.5975 -66.25 146.875 C-62.77777778 138.88888889 -62.77777778 138.88888889 -59 137 C-58.27306096 135.02111039 -57.60183749 133.02045442 -57 131 C-56.34 131 -55.68 131 -55 131 C-54.896875 130.401875 -54.79375 129.80375 -54.6875 129.1875 C-54 127 -54 127 -52.6484375 125.734375 C-50.45239913 123.42385121 -49.32224369 120.92760907 -47.9375 118.0625 C-47.43089844 117.02222656 -46.92429687 115.98195313 -46.40234375 114.91015625 C-45.57842993 113.20036295 -44.77110748 111.48207456 -44.00390625 109.74609375 C-43 108 -43 108 -40 106 C-38.87553529 103.76127976 -38.87553529 103.76127976 -38 101.1875 C-36.61314772 97.51024017 -35.06161905 94.35013096 -33 91 C-30.95379168 86.75373311 -29.02587989 82.61645951 -28 78 C-27.34 78 -26.68 78 -26 78 C-25.01 74.7 -24.02 71.4 -23 68 C-22.34 68 -21.68 68 -21 68 C-20.67 65.69 -20.34 63.38 -20 61 C-19.34 61 -18.68 61 -18 61 C-17.87882813 60.18015625 -17.75765625 59.3603125 -17.6328125 58.515625 C-17.46523438 57.43796875 -17.29765625 56.3603125 -17.125 55.25 C-16.88136719 53.64898437 -16.88136719 53.64898437 -16.6328125 52.015625 C-16.06776118 49.32291129 -15.36577086 47.36427561 -14 45 C-13.34 45 -12.68 45 -12 45 C-11.814375 43.700625 -11.814375 43.700625 -11.625 42.375 C-11.01624037 39.087698 -10.09435034 36.15430393 -9 33 C-6.98480085 26.41701613 -5.51428216 19.71331756 -4 13 C-3.34 13 -2.68 13 -2 13 C-1.34 8.71 -0.68 4.42 0 0 Z " fill="#FCFDFE" transform="translate(353,110)"/>
<path d="M0 0 C0.88828491 -0.0014502 1.77656982 -0.00290039 2.69177246 -0.00439453 C15.7867049 -0.00196471 28.67633914 0.93817422 41.6875 2.375 C42.46749359 2.45943359 43.24748718 2.54386719 44.05111694 2.63085938 C48.93751932 3.16071895 53.81387537 3.73987919 58.6875 4.375 C59.83653809 4.52340332 59.83653809 4.52340332 61.00878906 4.67480469 C73.56511693 6.3316486 85.83201008 8.79428455 98.14111328 11.76513672 C100.50574773 12.33147007 102.87437084 12.87443699 105.24609375 13.41015625 C112.37971791 15.05644066 118.97087085 17.06953106 125.55078125 20.32421875 C127.78396325 21.48208869 127.78396325 21.48208869 130.6875 22.375 C130.6875 23.035 130.6875 23.695 130.6875 24.375 C132.0075 24.705 133.3275 25.035 134.6875 25.375 C134.6875 26.035 134.6875 26.695 134.6875 27.375 C135.39390625 27.59542969 136.1003125 27.81585938 136.828125 28.04296875 C140.33973216 29.67884039 142.76178819 31.95821298 145.4375 34.6875 C145.95755615 35.2129541 146.4776123 35.7384082 147.01342773 36.27978516 C161.96722284 51.81375358 169.64784376 71.42015762 169.875 93 C169.59369772 107.68046264 169.59369772 107.68046264 167.3359375 111.90234375 C164.96021093 116.90713266 163.88422841 122.12170988 162.625 127.5 C162.11766226 129.64947626 161.60611005 131.79796323 161.08984375 133.9453125 C160.86804443 134.89164551 160.64624512 135.83797852 160.41772461 136.81298828 C159.73480841 139.20901724 158.81497085 141.16634911 157.6875 143.375 C157.30459538 145.36610401 156.96145385 147.36600513 156.6875 149.375 C156.0275 149.375 155.3675 149.375 154.6875 149.375 C154.584375 150.4475 154.48125 151.52 154.375 152.625 C153.67551133 156.44039273 152.97140569 157.45160071 150.6875 160.375 C149.95489841 162.68847872 149.276062 165.020752 148.6875 167.375 C148.0275 167.375 147.3675 167.375 146.6875 167.375 C146.58566406 168.23480469 146.48382813 169.09460938 146.37890625 169.98046875 C145.62742826 173.66992846 144.37491016 176.35908317 142.625 179.6875 C141.99005933 180.91165893 141.35734737 182.13697574 140.7265625 183.36328125 C140.39430664 184.00861816 140.06205078 184.65395508 139.71972656 185.31884766 C137.54014365 189.6604861 135.53768979 194.09009945 133.52905273 198.51293945 C131.56952706 202.75377938 129.29539369 206.48594689 126.6875 210.375 C126.02544551 211.65515097 125.38182521 212.94495181 124.75390625 214.2421875 C122.66867244 218.52674704 120.19862342 222.49487091 117.625 226.5 C114.72167469 231.02970517 112.00155019 235.50411403 109.6875 240.375 C109.0275 240.375 108.3675 240.375 107.6875 240.375 C107.41679687 240.93703125 107.14609375 241.4990625 106.8671875 242.078125 C102.88735723 249.82693361 97.69997466 256.85280196 92.5 263.8125 C91.98904785 264.49860352 91.4780957 265.18470703 90.95166016 265.89160156 C88.37654583 269.30209274 85.75479805 272.38907924 82.6875 275.375 C81.18854723 277.15014621 79.71032478 278.942943 78.25 280.75 C77.46238281 281.719375 76.67476562 282.68875 75.86328125 283.6875 C75.14527344 284.574375 74.42726562 285.46125 73.6875 286.375 C70.53892154 290.26013538 67.23302144 293.8446088 63.6875 297.375 C62.69236485 298.40205396 61.69894042 299.43076761 60.70703125 300.4609375 C48.11866263 313.4298847 48.11866263 313.4298847 40.6875 317.375 C39.6975 317.375 38.7075 317.375 37.6875 317.375 C37.6875 318.035 37.6875 318.695 37.6875 319.375 C35.45986012 320.19190177 33.2305514 321.00361872 31 321.8125 C30.37416016 322.04259766 29.74832031 322.27269531 29.10351562 322.50976562 C25.65507692 323.75553667 22.3061521 324.77304449 18.6875 325.375 C18.6875 326.035 18.6875 326.695 18.6875 327.375 C11.61890165 328.29731189 4.68755752 328.5580745 -2.4375 328.5625 C-3.48292969 328.57474609 -4.52835938 328.58699219 -5.60546875 328.59960938 C-11.23214612 328.61027943 -15.94383604 328.24670543 -21.3125 326.375 C-22.34890625 326.09140625 -23.3853125 325.8078125 -24.453125 325.515625 C-32.01960924 323.34834057 -38.57014966 320.42851724 -45.3125 316.375 C-45.3125 315.715 -45.3125 315.055 -45.3125 314.375 C-46.15167969 314.189375 -46.99085938 314.00375 -47.85546875 313.8125 C-52.48208271 311.88866504 -55.20380645 308.95807968 -58.625 305.375 C-59.25728516 304.73304688 -59.88957031 304.09109375 -60.54101562 303.4296875 C-65.14273695 298.7145261 -65.14273695 298.7145261 -66.3125 296.375 C-67.3025 296.045 -68.2925 295.715 -69.3125 295.375 C-70.53125 293.984375 -70.53125 293.984375 -71.8125 292.125 C-74.6172849 288.22907683 -77.62931846 284.57970418 -80.75 280.9375 C-84.56090527 276.47775249 -88.25743717 271.96320423 -91.8203125 267.30078125 C-93.19069692 265.53219613 -94.60813759 263.82462471 -96.0625 262.125 C-101.3125 255.70833333 -101.3125 255.70833333 -101.3125 252.375 C-101.9725 252.375 -102.6325 252.375 -103.3125 252.375 C-103.3125 251.715 -103.3125 251.055 -103.3125 250.375 C-103.9725 250.375 -104.6325 250.375 -105.3125 250.375 C-109.3125 243.625 -109.3125 243.625 -109.3125 241.375 C-109.9725 241.375 -110.6325 241.375 -111.3125 241.375 C-112.20001953 239.78171875 -112.20001953 239.78171875 -113.10546875 238.15625 C-117.5804317 230.14657763 -122.15322146 222.27732877 -127.125 214.5625 C-128.3125 212.375 -128.3125 212.375 -128.3125 209.375 C-129.3025 209.045 -130.2925 208.715 -131.3125 208.375 C-133.05922985 204.8815403 -134.3125 202.30654432 -134.3125 198.375 C-134.9725 198.375 -135.6325 198.375 -136.3125 198.375 C-136.62703125 197.58996094 -136.9415625 196.80492187 -137.265625 195.99609375 C-140.09293364 188.9832728 -140.09293364 188.9832728 -143.625 182.3125 C-145.3125 179.375 -145.3125 179.375 -145.3125 176.375 C-145.9725 176.375 -146.6325 176.375 -147.3125 176.375 C-150.68314403 168.90286033 -153.62637064 161.76738597 -155.609375 153.80078125 C-156.26390861 151.5426403 -157.06071637 149.7398559 -158.1875 147.6875 C-162.85238594 139.00116067 -165.16260602 128.49130414 -167.62109375 118.98046875 C-168.0882001 117.22024313 -168.60278489 115.4720401 -169.16015625 113.73828125 C-173.71864949 98.53623635 -173.38232028 76.9421575 -166.1875 62.5 C-165.56875 61.46875 -164.95 60.4375 -164.3125 59.375 C-163.9825 58.385 -163.6525 57.395 -163.3125 56.375 C-162.6525 56.375 -161.9925 56.375 -161.3125 56.375 C-161.1578125 55.6015625 -161.1578125 55.6015625 -161 54.8125 C-159.12213687 48.15462163 -156.35845076 43.7449347 -151.625 38.8125 C-151.09334229 38.24821289 -150.56168457 37.68392578 -150.01391602 37.10253906 C-145.40861589 32.30027658 -140.73077307 27.51442436 -134.3125 25.375 C-133.714375 24.75625 -133.11625 24.1375 -132.5 23.5 C-128.03932636 19.16677417 -122.53354433 17.73500755 -116.6796875 16.12109375 C-114.34293796 15.46213157 -114.34293796 15.46213157 -112.4453125 14.39086914 C-110.20792601 13.32519089 -108.2518087 12.8310646 -105.8203125 12.375 C-104.95631836 12.21104736 -104.09232422 12.04709473 -103.20214844 11.87817383 C-102.28981445 11.71212646 -101.37748047 11.5460791 -100.4375 11.375 C-99.50454102 11.20057373 -98.57158203 11.02614746 -97.61035156 10.84643555 C-91.00517024 9.63055923 -84.39880096 8.60649554 -77.734375 7.76953125 C-75.36904739 7.62628597 -75.36904739 7.62628597 -74.3125 6.375 C-72.79321962 6.30320036 -71.27082518 6.29107993 -69.75 6.3125 C-68.92371094 6.32152344 -68.09742187 6.33054687 -67.24609375 6.33984375 C-66.60800781 6.35144531 -65.96992187 6.36304688 -65.3125 6.375 C-65.3125 5.715 -65.3125 5.055 -65.3125 4.375 C-43.54664465 1.84361689 -21.92793372 -0.0345035 0 0 Z M-42.3125 10.375 C-42.3125 11.035 -42.3125 11.695 -42.3125 12.375 C-43.11429687 12.35179687 -43.91609375 12.32859375 -44.7421875 12.3046875 C-51.9363077 12.19049512 -58.91630883 12.5140027 -66.0625 13.3125 C-66.84866699 13.39935059 -67.63483398 13.48620117 -68.44482422 13.57568359 C-72.50652231 14.00333624 -72.50652231 14.00333624 -76.3125 15.375 C-76.3125 16.035 -76.3125 16.695 -76.3125 17.375 C-77.50875 17.33375 -78.705 17.2925 -79.9375 17.25 C-83.77262668 17.11775425 -86.69805147 18.13435286 -90.3125 19.375 C-92.57725604 19.88211419 -94.84864435 20.36029467 -97.125 20.8125 C-101.93143712 21.81426268 -106.53898866 22.95218376 -111.15234375 24.62890625 C-112.94254118 25.24722037 -114.76964352 25.75745691 -116.6015625 26.23828125 C-120.5895449 27.45986323 -124.06480117 29.0813568 -127.75 31 C-128.38615234 31.32484375 -129.02230469 31.6496875 -129.67773438 31.984375 C-131.22549944 32.77571353 -132.7694187 33.5745667 -134.3125 34.375 C-134.3125 35.035 -134.3125 35.695 -134.3125 36.375 C-134.87195313 36.61089844 -135.43140625 36.84679687 -136.0078125 37.08984375 C-146.79358071 43.1042806 -154.89375039 55.73114102 -158.3125 67.375 C-158.3125 68.695 -158.3125 70.015 -158.3125 71.375 C-158.9725 71.375 -159.6325 71.375 -160.3125 71.375 C-161.60318141 78.3240287 -161.49633805 85.2632367 -161.5 92.3125 C-161.51224609 93.54935547 -161.52449219 94.78621094 -161.53710938 96.06054688 C-161.54754229 102.56720987 -161.23614775 108.16013805 -159.3125 114.375 C-158.96139745 115.69241278 -158.61641736 117.01147133 -158.27734375 118.33203125 C-157.93832031 119.60433594 -157.59929687 120.87664062 -157.25 122.1875 C-157.07662109 122.84169922 -156.90324219 123.49589844 -156.72460938 124.16992188 C-155.98755927 126.93456574 -155.21759194 129.65972419 -154.3125 132.375 C-153.6525 132.375 -152.9925 132.375 -152.3125 132.375 C-152.25191406 132.97828125 -152.19132812 133.5815625 -152.12890625 134.203125 C-152.00322266 135.40195313 -152.00322266 135.40195313 -151.875 136.625 C-151.79378906 137.41390625 -151.71257812 138.2028125 -151.62890625 139.015625 C-151.33615007 141.19864639 -150.89185581 143.2523182 -150.3125 145.375 C-149.6525 145.375 -148.9925 145.375 -148.3125 145.375 C-147.9825 148.015 -147.6525 150.655 -147.3125 153.375 C-146.6525 153.375 -145.9925 153.375 -145.3125 153.375 C-145.35375 154.09042969 -145.395 154.80585938 -145.4375 155.54296875 C-145.29889687 158.68319586 -144.54146491 160.80711348 -143.3125 163.6875 C-142.94125 164.57050781 -142.57 165.45351562 -142.1875 166.36328125 C-141.89875 167.02714844 -141.61 167.69101563 -141.3125 168.375 C-140.6525 168.375 -139.9925 168.375 -139.3125 168.375 C-139.1578125 170.0146875 -139.1578125 170.0146875 -139 171.6875 C-138.26782392 175.61462622 -137.96666357 175.84048966 -135.3125 178.375 C-134.30102539 180.16503906 -134.30102539 180.16503906 -133.41015625 182.140625 C-132.91032227 183.22923828 -132.91032227 183.22923828 -132.40039062 184.33984375 C-132.06201172 185.09394531 -131.72363281 185.84804687 -131.375 186.625 C-128.91928294 192.04745039 -126.30549088 197.22859385 -123.3125 202.375 C-122.60963697 204.02672812 -121.92594757 205.68801918 -121.3125 207.375 C-120.6525 207.375 -119.9925 207.375 -119.3125 207.375 C-118.8175 209.85 -118.8175 209.85 -118.3125 212.375 C-117.6525 212.375 -116.9925 212.375 -116.3125 212.375 C-116.15587891 213.44814453 -116.15587891 213.44814453 -115.99609375 214.54296875 C-115.23727733 217.68663677 -114.04756294 219.92715773 -112.375 222.6875 C-111.85035156 223.57050781 -111.32570312 224.45351562 -110.78515625 225.36328125 C-110.29917969 226.02714844 -109.81320313 226.69101563 -109.3125 227.375 C-108.6525 227.375 -107.9925 227.375 -107.3125 227.375 C-107.209375 227.931875 -107.10625 228.48875 -107 229.0625 C-106.17071592 231.8519101 -104.96950944 233.9889064 -103.3125 236.375 C-102.6525 236.375 -101.9925 236.375 -101.3125 236.375 C-101.209375 236.931875 -101.10625 237.48875 -101 238.0625 C-100.17071592 240.8519101 -98.96950944 242.9889064 -97.3125 245.375 C-96.6525 245.375 -95.9925 245.375 -95.3125 245.375 C-95.23 245.9525 -95.1475 246.53 -95.0625 247.125 C-94.09452213 250.0289336 -92.62555716 251.41240604 -90.3125 253.375 C-89.6525 253.375 -88.9925 253.375 -88.3125 253.375 C-88.085625 254.22320312 -87.85875 255.07140625 -87.625 255.9453125 C-86.0785066 259.98644703 -83.97723727 262.88481751 -81.3125 266.25 C-80.63574219 267.13945313 -80.63574219 267.13945313 -79.9453125 268.046875 C-78.78797402 269.532925 -77.55550269 270.95982464 -76.3125 272.375 C-75.6525 272.375 -74.9925 272.375 -74.3125 272.375 C-74.05082031 272.95378906 -73.78914063 273.53257812 -73.51953125 274.12890625 C-72.23957261 276.51070631 -70.79893946 278.29816646 -69 280.3125 C-68.38125 281.00730469 -67.7625 281.70210938 -67.125 282.41796875 C-65.63033667 284.0318186 -64.07277574 285.58717483 -62.5 287.125 C-60.4481137 289.23551162 -59.60069851 290.79860299 -58.3125 293.375 C-54.70362818 297.23366623 -50.80749241 300.49023796 -46.625 303.6875 C-46.04427734 304.14189453 -45.46355469 304.59628906 -44.86523438 305.06445312 C-41.92652211 307.56798355 -41.92652211 307.56798355 -38.3125 308.375 C-38.3125 309.035 -38.3125 309.695 -38.3125 310.375 C-36.3325 310.705 -34.3525 311.035 -32.3125 311.375 C-32.3125 312.035 -32.3125 312.695 -32.3125 313.375 C-30.0025 313.705 -27.6925 314.035 -25.3125 314.375 C-25.3125 315.035 -25.3125 315.695 -25.3125 316.375 C-17.35837978 319.39956615 -10.1349553 319.74614033 -1.6875 319.5625 C0.10494141 319.54219727 0.10494141 319.54219727 1.93359375 319.52148438 C4.852048 319.48646292 7.76952348 319.43734993 10.6875 319.375 C10.6875 318.715 10.6875 318.055 10.6875 317.375 C11.38875 317.33761719 12.09 317.30023438 12.8125 317.26171875 C19.01001602 316.83227131 23.98759796 315.84854239 29.6875 313.375 C29.6875 312.715 29.6875 312.055 29.6875 311.375 C30.52861328 311.21064453 30.52861328 311.21064453 31.38671875 311.04296875 C41.24639438 308.18048228 49.25029284 300.26464483 55.7265625 292.66015625 C58.0626209 289.93785712 60.46340973 287.28057814 62.875 284.625 C63.69355469 283.72265625 64.51210937 282.8203125 65.35546875 281.890625 C66.77149644 280.36311775 68.21557666 278.86020186 69.70703125 277.40625 C72.09348542 274.9586047 74.11639205 272.3450551 76.1875 269.625 C76.61184326 269.0686084 77.03618652 268.5122168 77.47338867 267.93896484 C78.88244047 266.08756296 80.28570363 264.23190076 81.6875 262.375 C82.20006348 261.69663086 82.71262695 261.01826172 83.24072266 260.31933594 C84.82932708 258.21452037 86.41541972 256.10784653 88 254 C88.49113281 253.34676758 88.98226562 252.69353516 89.48828125 252.02050781 C91.82224812 248.90485231 94.11893895 245.77238675 96.35546875 242.5859375 C98.08119887 240.20980658 99.64565402 238.41020981 101.6875 236.375 C102.88538709 234.4122639 102.88538709 234.4122639 103.875 232.3125 C104.39126953 231.27416016 104.39126953 231.27416016 104.91796875 230.21484375 C105.81612225 228.39986394 105.81612225 228.39986394 105.6875 226.375 C106.285625 226.15199219 106.88375 225.92898437 107.5 225.69921875 C110.36686457 223.9637418 111.17869499 222.16000987 112.6875 219.1875 C114.37624284 215.91262148 116.06629958 212.6986105 118 209.5625 C119.67945033 206.39020493 120.3411283 203.9253099 120.6875 200.375 C121.3475 200.375 122.0075 200.375 122.6875 200.375 C122.6875 199.385 122.6875 198.395 122.6875 197.375 C123.3475 197.375 124.0075 197.375 124.6875 197.375 C125.0175 195.395 125.3475 193.415 125.6875 191.375 C126.3475 191.375 127.0075 191.375 127.6875 191.375 C128.3475 188.405 129.0075 185.435 129.6875 182.375 C130.3475 182.375 131.0075 182.375 131.6875 182.375 C131.6875 181.385 131.6875 180.395 131.6875 179.375 C132.3475 179.375 133.0075 179.375 133.6875 179.375 C134.0175 177.395 134.3475 175.415 134.6875 173.375 C135.3475 173.375 136.0075 173.375 136.6875 173.375 C137.1825 172.3025 137.6775 171.23 138.1875 170.125 C138.4659375 169.52171875 138.744375 168.9184375 139.03125 168.296875 C139.90292924 166.08257164 139.90292924 166.08257164 139.6875 162.375 C140.3475 162.375 141.0075 162.375 141.6875 162.375 C141.92984375 161.63636719 142.1721875 160.89773437 142.421875 160.13671875 C144.06396795 155.1662297 145.72774703 150.21545332 147.5625 145.3125 C151.71276172 133.94868815 155.81228604 122.47074709 157.36328125 110.4296875 C157.6875 108.375 157.6875 108.375 158.6875 107.375 C158.72813832 105.70882885 158.730221 104.04111905 158.6875 102.375 C159.3475 102.375 160.0075 102.375 160.6875 102.375 C160.6875 96.105 160.6875 89.835 160.6875 83.375 C160.0275 83.375 159.3675 83.375 158.6875 83.375 C158.3575 79.085 158.0275 74.795 157.6875 70.375 C157.0275 70.375 156.3675 70.375 155.6875 70.375 C155.3575 68.065 155.0275 65.755 154.6875 63.375 C154.0275 63.375 153.3675 63.375 152.6875 63.375 C152.61660156 62.52808594 152.54570312 61.68117187 152.47265625 60.80859375 C151.52537612 56.66601048 149.6120244 53.79113136 147.125 50.4375 C146.67898438 49.82503418 146.23296875 49.21256836 145.7734375 48.58154297 C142.30638429 43.94028477 138.58511971 39.56805599 133.6875 36.375 C133.0275 36.375 132.3675 36.375 131.6875 36.375 C131.6875 35.715 131.6875 35.055 131.6875 34.375 C129.58733377 33.20058465 127.48291245 32.03535988 125.375 30.875 C124.78009766 30.54113281 124.18519531 30.20726563 123.57226562 29.86328125 C120.72921156 28.30674886 118.98089012 27.375 115.6875 27.375 C115.6875 26.715 115.6875 26.055 115.6875 25.375 C107.76782393 22.92904307 100.17379706 20.93547614 91.91796875 19.96484375 C89.25882605 19.47931709 87.14532101 18.84491107 84.63671875 17.91796875 C78.66898784 15.84973214 72.56807243 15.36645059 66.3125 14.75 C63.99190308 14.51055312 61.67157413 14.26849039 59.3515625 14.0234375 C58.33529785 13.92208496 57.3190332 13.82073242 56.27197266 13.71630859 C53.6875 13.375 53.6875 13.375 50.6875 12.375 C48.79279184 12.3064505 46.8958166 12.29019628 45 12.3125 C44.00613281 12.32152344 43.01226562 12.33054687 41.98828125 12.33984375 C41.22902344 12.35144531 40.46976563 12.36304688 39.6875 12.375 C39.6875 11.715 39.6875 11.055 39.6875 10.375 C26.38388125 9.54174438 13.14079795 9.21243758 -0.1875 9.25 C-1.10061951 9.25088623 -2.01373901 9.25177246 -2.95452881 9.25268555 C-16.09491565 9.26764887 -29.19941219 9.45478331 -42.3125 10.375 Z " fill="#EDF3F7" transform="translate(178.3125,5.625)"/>
<path d="M0 0 C51.15 0 102.3 0 155 0 C155 29.37 155 58.74 155 89 C154.67 89 154.34 89 154 89 C153.82984375 88.12859375 153.6596875 87.2571875 153.484375 86.359375 C152.02845267 79.20367161 150.3027998 72.41489866 147.8671875 65.5234375 C147.12331347 63.35883109 146.51269286 61.22864449 146 59 C145.34 59 144.68 59 144 59 C143.67 57.02 143.34 55.04 143 53 C142.34 53 141.68 53 141 53 C137 47.58823529 137 47.58823529 137 45 C136.401875 44.773125 135.80375 44.54625 135.1875 44.3125 C133 43 133 43 131.65234375 40.6640625 C127.08703331 33.30344378 116.23806787 25.74602262 108 23 C108 22.34 108 21.68 108 21 C107.01 21 106.02 21 105 21 C105 20.34 105 19.68 105 19 C101.04 18.34 97.08 17.68 93 17 C93 16.34 93 15.68 93 15 C92.34773438 14.96261719 91.69546875 14.92523438 91.0234375 14.88671875 C90.14945312 14.82097656 89.27546875 14.75523438 88.375 14.6875 C87.08722656 14.60048828 87.08722656 14.60048828 85.7734375 14.51171875 C83 14 83 14 80.12109375 12.52734375 C76.57162207 10.79036825 73.60097697 10.32957494 69.6875 9.875 C63.08896797 9.08896797 63.08896797 9.08896797 62 8 C53.08610845 5.41808125 43.58121706 5.1889006 34.375 4.5 C22.8679515 3.62705149 11.43820543 2.54205404 0 1 C0 0.67 0 0.34 0 0 Z " fill="#F9FBFC" transform="translate(199,0)"/>
<path d="M0 0 C49.17 0 98.34 0 149 0 C149 0.33 149 0.66 149 1 C148.17387207 1.08040527 147.34774414 1.16081055 146.49658203 1.24365234 C143.38370315 1.54905865 140.27131675 1.8590067 137.15917969 2.171875 C135.16895862 2.37061047 133.17823268 2.56426905 131.1875 2.7578125 C124.70678343 3.41243034 118.3865748 4.22622512 112.02001953 5.60302734 C108.30773645 6.33256231 104.76438713 6.12143184 101 6 C101 6.66 101 7.32 101 8 C99.80246094 8.17015625 98.60492188 8.3403125 97.37109375 8.515625 C88.10494056 9.87978476 79.17718015 11.54612867 70.19921875 14.23046875 C67.0064327 14.9984527 64.26947016 15.1434412 61 15 C61 15.66 61 16.32 61 17 C57.37 17.66 53.74 18.32 50 19 C50 19.66 50 20.32 50 21 C48.96875 21.4125 47.9375 21.825 46.875 22.25 C43.28557072 23.77168503 40.23147954 25.82063008 37 28 C36.34 28 35.68 28 35 28 C35 28.66 35 29.32 35 30 C30.52941176 34 30.52941176 34 28 34 C27.67 34.99 27.34 35.98 27 37 C26.34 37 25.68 37 25 37 C24.67 37.99 24.34 38.98 24 40 C23.34 40 22.68 40 22 40 C21.71125 40.598125 21.4225 41.19625 21.125 41.8125 C20 44 20 44 18 47 C17.34 47 16.68 47 16 47 C15.7525 47.66 15.505 48.32 15.25 49 C13.94482249 52.13242603 12.45646726 55.11839936 10.90234375 58.1328125 C9.87997124 60.14664322 9.87997124 60.14664322 9 63 C8.34 63 7.68 63 7 63 C6.89042969 63.70125 6.78085938 64.4025 6.66796875 65.125 C5.78569385 70.40430348 4.68930762 75.19002583 2.6640625 80.140625 C1.62193246 83.05858912 1.32021585 85.92592785 1 89 C0.67 89 0.34 89 0 89 C0 59.63 0 30.26 0 0 Z " fill="#FBFCFD" transform="translate(0,0)"/>
<path d="M0 0 C4.95 0 9.9 0 15 0 C15 36.3 15 72.6 15 110 C9.06 110 3.12 110 -3 110 C-3 84.92 -3 59.84 -3 34 C-12.57 34 -22.14 34 -32 34 C-32 30.04 -32 26.08 -32 22 C-31.01 21.98582031 -30.02 21.97164062 -29 21.95703125 C-16.96238091 21.59881414 -11.29587697 18.49339785 -3 10 C-2.34 10 -1.68 10 -1 10 C-0.67 6.7 -0.34 3.4 0 0 Z " fill="#F9FBFC" transform="translate(178,95)"/>
<path d="M0 0 C1.36560059 0.00303635 1.36560059 0.00303635 2.75878906 0.00613403 C3.68723633 0.00517731 4.61568359 0.00422058 5.57226562 0.00323486 C7.53938871 0.00255298 9.50651403 0.00440781 11.47363281 0.00857544 C14.49581932 0.01392358 17.51785721 0.00863071 20.54003906 0.00222778 C22.44628939 0.00288856 24.35253963 0.00416972 26.25878906 0.00613403 C27.16918945 0.0041098 28.07958984 0.00208557 29.01757812 0 C35.39383938 0.02399685 35.39383938 0.02399685 36.50878906 1.13894653 C36.62239199 4.21806313 36.67298011 7.27390119 36.67675781 10.35379028 C36.68175041 11.74290367 36.68175041 11.74290367 36.68684387 13.16007996 C36.69191714 15.12300112 36.69425208 17.08593093 36.6940918 19.04885864 C36.69627724 22.06015164 36.7144258 25.07107787 36.73339844 28.08230591 C36.73633242 29.98529944 36.73831718 31.88829472 36.73925781 33.79129028 C36.74644333 34.69652939 36.75362885 35.60176849 36.7610321 36.53443909 C36.75795547 37.37193192 36.75487885 38.20942474 36.75170898 39.07229614 C36.753134 39.8109642 36.75455902 40.54963226 36.75602722 41.3106842 C36.50878906 43.13894653 36.50878906 43.13894653 34.50878906 45.13894653 C31.51916803 45.33900956 28.62416556 45.41867576 25.63378906 45.40457153 C24.31338623 45.40744171 24.31338623 45.40744171 22.96630859 45.41036987 C21.10351272 45.41173205 19.24070737 45.40803335 17.37792969 45.39968872 C14.5202917 45.3889896 11.6632824 45.39958285 8.80566406 45.41238403 C6.998371 45.41106244 5.19107834 45.40850006 3.38378906 45.40457153 C2.52543457 45.40862 1.66708008 45.41266846 0.78271484 45.4168396 C-5.26129349 45.36886398 -5.26129349 45.36886398 -7.49121094 43.13894653 C-7.7384491 41.3106842 -7.7384491 41.3106842 -7.73413086 39.07229614 C-7.73720749 38.23480331 -7.74028412 37.39731049 -7.74345398 36.53443909 C-7.73626846 35.62919998 -7.72908295 34.72396088 -7.72167969 33.79129028 C-7.72122147 32.86425797 -7.72076324 31.93722565 -7.72029114 30.98210144 C-7.71726748 29.0209424 -7.70937779 27.05978578 -7.69702148 25.09866333 C-7.67876465 22.08531251 -7.67651176 19.07226875 -7.67675781 16.05886841 C-7.67184278 14.15717302 -7.66601453 12.25547974 -7.65917969 10.35379028 C-7.65806686 9.44652695 -7.65695404 8.53926361 -7.6558075 7.60450745 C-7.59846847 0.10585667 -7.49681049 0.028214 0 0 Z " fill="#1962A5" transform="translate(127.4912109375,35.861053466796875)"/>
<path d="M0 0 C4.875 0.875 4.875 0.875 6 2 C6.04063832 3.66617115 6.042721 5.33388095 6 7 C8.91038542 6.97474816 8.91038542 6.97474816 12 6 C13.93469849 3.04928156 13.93469849 3.04928156 15 0 C17.475 0.495 17.475 0.495 20 1 C20 2.32 20 3.64 20 5 C22.31 5.33 24.62 5.66 27 6 C26.67 7.65 26.34 9.3 26 11 C25.00097656 11.04898438 24.00195312 11.09796875 22.97265625 11.1484375 C21.68230469 11.22320312 20.39195312 11.29796875 19.0625 11.375 C17.77472656 11.44460937 16.48695313 11.51421875 15.16015625 11.5859375 C14.11730469 11.72257812 13.07445312 11.85921875 12 12 C11.67 12.66 11.34 13.32 11 14 C14.96 14 18.92 14 23 14 C23.05373546 17.95851252 23.0935461 21.91630255 23.125 25.875 C23.14175781 27.00292969 23.15851563 28.13085938 23.17578125 29.29296875 C23.18222656 30.36933594 23.18867188 31.44570312 23.1953125 32.5546875 C23.20578613 33.54968262 23.21625977 34.54467773 23.22705078 35.56982422 C23 38 23 38 21 40 C18.69335938 40.25878906 18.69335938 40.25878906 15.84375 40.265625 C14.31041016 40.26949219 14.31041016 40.26949219 12.74609375 40.2734375 C11.67488281 40.26570313 10.60367188 40.25796875 9.5 40.25 C7.89318359 40.26160156 7.89318359 40.26160156 6.25390625 40.2734375 C5.23167969 40.27085938 4.20945313 40.26828125 3.15625 40.265625 C2.21587891 40.26336914 1.27550781 40.26111328 0.30664062 40.25878906 C-2 40 -2 40 -4 38 C-4.25878906 35.78515625 -4.25878906 35.78515625 -4.265625 33.0625 C-4.26949219 31.59683594 -4.26949219 31.59683594 -4.2734375 30.1015625 C-4.26570312 29.07804687 -4.25796875 28.05453125 -4.25 27 C-4.25773438 25.97648437 -4.26546875 24.95296875 -4.2734375 23.8984375 C-4.27085937 22.92132813 -4.26828125 21.94421875 -4.265625 20.9375 C-4.26336914 20.03902344 -4.26111328 19.14054687 -4.25878906 18.21484375 C-4 16 -4 16 -2 14 C1.625 13.875 1.625 13.875 5 14 C5 13.01 5 12.02 5 11 C1.04 11 -2.92 11 -7 11 C-7 9.35 -7 7.7 -7 6 C-4.69 6 -2.38 6 0 6 C0 4.02 0 2.04 0 0 Z " fill="#DAE5F0" transform="translate(212,34)"/>
<path d="M0 0 C3.5211675 2.97343033 5.43863116 5.79582046 6.11352539 10.45166016 C6.25081694 12.7671593 6.27104965 15.05571161 6.25 17.375 C6.2799707 18.54675781 6.2799707 18.54675781 6.31054688 19.7421875 C6.30602198 25.1177674 5.27488821 28.06653948 1.8125 32.375 C1.255625 33.15875 0.69875 33.9425 0.125 34.75 C-3.47166928 37.27738922 -6.93407134 36.99893766 -11.1875 36.375 C-16.28521133 34.26942358 -17.94166072 30.96781681 -20.24609375 26.171875 C-22.26301578 20.17969171 -22.39190319 11.95980382 -20.359375 5.91015625 C-18.93747318 3.40060565 -17.22212267 1.40962267 -15.1875 -0.625 C-9.69669074 -1.8729112 -5.11788324 -2.60911694 0 0 Z " fill="#E4ECF4" transform="translate(161.1875,230.625)"/>
<path d="M0 0 C1.36560059 0.00303635 1.36560059 0.00303635 2.75878906 0.00613403 C3.68723633 0.00517731 4.61568359 0.00422058 5.57226562 0.00323486 C7.53938871 0.00255298 9.50651403 0.00440781 11.47363281 0.00857544 C14.49581932 0.01392358 17.51785721 0.00863071 20.54003906 0.00222778 C22.44628939 0.00288856 24.35253963 0.00416972 26.25878906 0.00613403 C27.16918945 0.0041098 28.07958984 0.00208557 29.01757812 0 C35.39383938 0.02399685 35.39383938 0.02399685 36.50878906 1.13894653 C36.62239199 4.21806313 36.67298011 7.27390119 36.67675781 10.35379028 C36.68175041 11.74290367 36.68175041 11.74290367 36.68684387 13.16007996 C36.69191714 15.12300112 36.69425208 17.08593093 36.6940918 19.04885864 C36.69627724 22.06015164 36.7144258 25.07107787 36.73339844 28.08230591 C36.73633242 29.98529944 36.73831718 31.88829472 36.73925781 33.79129028 C36.74644333 34.69652939 36.75362885 35.60176849 36.7610321 36.53443909 C36.75795547 37.37193192 36.75487885 38.20942474 36.75170898 39.07229614 C36.753134 39.8109642 36.75455902 40.54963226 36.75602722 41.3106842 C36.50878906 43.13894653 36.50878906 43.13894653 34.50878906 45.13894653 C31.51916803 45.33900956 28.62416556 45.41867576 25.63378906 45.40457153 C24.31338623 45.40744171 24.31338623 45.40744171 22.96630859 45.41036987 C21.10351272 45.41173205 19.24070737 45.40803335 17.37792969 45.39968872 C14.5202917 45.3889896 11.6632824 45.39958285 8.80566406 45.41238403 C6.998371 45.41106244 5.19107834 45.40850006 3.38378906 45.40457153 C2.52543457 45.40862 1.66708008 45.41266846 0.78271484 45.4168396 C-5.26129349 45.36886398 -5.26129349 45.36886398 -7.49121094 43.13894653 C-7.7384491 41.3106842 -7.7384491 41.3106842 -7.73413086 39.07229614 C-7.73720749 38.23480331 -7.74028412 37.39731049 -7.74345398 36.53443909 C-7.73626846 35.62919998 -7.72908295 34.72396088 -7.72167969 33.79129028 C-7.72122147 32.86425797 -7.72076324 31.93722565 -7.72029114 30.98210144 C-7.71726748 29.0209424 -7.70937779 27.05978578 -7.69702148 25.09866333 C-7.67876465 22.08531251 -7.67651176 19.07226875 -7.67675781 16.05886841 C-7.67184278 14.15717302 -7.66601453 12.25547974 -7.65917969 10.35379028 C-7.65806686 9.44652695 -7.65695404 8.53926361 -7.6558075 7.60450745 C-7.59846847 0.10585667 -7.49681049 0.028214 0 0 Z M-2.49121094 4.13894653 C-2.5141199 9.24764464 -2.53404695 14.35616579 -2.54614258 19.46487427 C-2.55118298 21.20413821 -2.55801524 22.94339789 -2.56665039 24.68264771 C-2.57872886 27.1772059 -2.58444202 29.67170827 -2.58886719 32.16629028 C-2.59402847 32.94858505 -2.59918976 33.73087982 -2.60450745 34.53688049 C-2.6047032 36.40461768 -2.55320788 38.27223857 -2.49121094 40.13894653 C-1.34532993 41.51211742 -1.34532993 41.51211742 1.7434082 41.25247192 C3.17693031 41.25222091 4.61045848 41.24666262 6.04394531 41.23660278 C6.71131714 41.2355957 7.37868896 41.23458862 8.06628418 41.23355103 C10.56796986 41.22830462 13.06963112 41.21434344 15.57128906 41.20144653 C21.16066406 41.18082153 26.75003906 41.16019653 32.50878906 41.13894653 C32.50878906 28.92894653 32.50878906 16.71894653 32.50878906 4.13894653 C20.95878906 4.13894653 9.40878906 4.13894653 -2.49121094 4.13894653 Z " fill="#DFE9F2" transform="translate(127.4912109375,35.861053466796875)"/>
<path d="M0 0 C5.94 0 11.88 0 18 0 C21.90740741 3.90740741 21.90740741 3.90740741 22.3125 8.6875 C22.28669557 13.39250704 20.57537358 16.13693964 18 20 C18.99 20.33 19.98 20.66 21 21 C21.33 25.95 21.66 30.9 22 36 C20.02 36 18.04 36 16 36 C15.93941406 35.07316406 15.87882813 34.14632812 15.81640625 33.19140625 C15.73261719 31.99386719 15.64882812 30.79632813 15.5625 29.5625 C15.48128906 28.36753906 15.40007812 27.17257812 15.31640625 25.94140625 C15.32343886 23.11429756 15.32343886 23.11429756 14 22 C12.65252916 21.76924918 11.29622435 21.58846937 9.9375 21.4375 C8.638125 21.293125 7.33875 21.14875 6 21 C6 25.95 6 30.9 6 36 C4.02 36 2.04 36 0 36 C0 24.12 0 12.24 0 0 Z " fill="#E6EDF5" transform="translate(113,230)"/>
<path d="M0 0 C1.98 0 3.96 0 6 0 C6.01981934 0.83249268 6.03963867 1.66498535 6.06005859 2.52270508 C6.13820742 5.614765 6.22490206 8.70643383 6.31738281 11.7980957 C6.37444092 13.7929536 6.42164442 15.7880854 6.46875 17.78320312 C6.50742188 19.03681641 6.54609375 20.29042969 6.5859375 21.58203125 C6.6173584 22.73936768 6.6487793 23.8967041 6.68115234 25.08911133 C6.79471033 28.19127028 6.79471033 28.19127028 9 31 C12.58357241 31.25015873 12.58357241 31.25015873 16 31 C17.42267862 28.15464275 17.21971869 25.63781448 17.31640625 22.4609375 C17.35830078 21.15898437 17.40019531 19.85703125 17.44335938 18.515625 C17.48317299 17.13541955 17.52288522 15.75521117 17.5625 14.375 C17.60569407 12.98696585 17.64930865 11.59894472 17.69335938 10.2109375 C17.79972 6.80739744 17.90174714 3.40378222 18 0 C19.98 0 21.96 0 24 0 C24.14902359 4.30487106 24.25752347 8.6083525 24.32958984 12.91503906 C24.35964802 14.37787038 24.40050856 15.84052317 24.45263672 17.30273438 C24.92942373 31.02672132 24.92942373 31.02672132 21.29296875 34.95703125 C16.59234871 37.87331154 13.35131413 37.91276596 8 37 C5.0625 35.6875 5.0625 35.6875 3 34 C2.46850342 33.61610107 1.93700684 33.23220215 1.3894043 32.83666992 C-0.77177933 29.9797758 -0.33618647 27.45522865 -0.29296875 23.92578125 C-0.28872391 23.2419487 -0.28447906 22.55811615 -0.28010559 21.8535614 C-0.26333353 19.67280439 -0.22568657 17.49297691 -0.1875 15.3125 C-0.17245114 13.83269565 -0.15876308 12.3528768 -0.14648438 10.87304688 C-0.11343569 7.24839664 -0.06166446 3.62428906 0 0 Z " fill="#DBE6F1" transform="translate(171,230)"/>
<path d="M0 0 C1.16660156 0.00322266 2.33320313 0.00644531 3.53515625 0.00976562 C4.75847656 0.01814453 5.98179687 0.02652344 7.2421875 0.03515625 C8.47324219 0.03966797 9.70429688 0.04417969 10.97265625 0.04882812 C14.02088142 0.06064295 17.06901064 0.07711597 20.1171875 0.09765625 C19.7871875 2.07765625 19.4571875 4.05765625 19.1171875 6.09765625 C15.8171875 6.09765625 12.5171875 6.09765625 9.1171875 6.09765625 C9.1171875 7.41765625 9.1171875 8.73765625 9.1171875 10.09765625 C12.0871875 10.09765625 15.0571875 10.09765625 18.1171875 10.09765625 C18.4471875 11.74765625 18.7771875 13.39765625 19.1171875 15.09765625 C18.1271875 15.59265625 18.1271875 15.59265625 17.1171875 16.09765625 C17.1171875 18.07765625 17.1171875 20.05765625 17.1171875 22.09765625 C16.4571875 22.09765625 15.7971875 22.09765625 15.1171875 22.09765625 C15.1171875 21.43765625 15.1171875 20.77765625 15.1171875 20.09765625 C14.4571875 20.09765625 13.7971875 20.09765625 13.1171875 20.09765625 C13.1171875 18.44765625 13.1171875 16.79765625 13.1171875 15.09765625 C11.4671875 15.09765625 9.8171875 15.09765625 8.1171875 15.09765625 C8.1171875 18.06765625 8.1171875 21.03765625 8.1171875 24.09765625 C12.4071875 24.09765625 16.6971875 24.09765625 21.1171875 24.09765625 C20.7871875 25.41765625 20.4571875 26.73765625 20.1171875 28.09765625 C10.8771875 28.09765625 1.6371875 28.09765625 -7.8828125 28.09765625 C-8.2128125 26.77765625 -8.5428125 25.45765625 -8.8828125 24.09765625 C-7.8828125 23.09765625 -7.8828125 23.09765625 -5.16015625 23 C-4.05800781 23.01160156 -2.95585937 23.02320312 -1.8203125 23.03515625 C-0.16322266 23.04869141 -0.16322266 23.04869141 1.52734375 23.0625 C2.38199219 23.07410156 3.23664063 23.08570312 4.1171875 23.09765625 C4.1171875 20.12765625 4.1171875 17.15765625 4.1171875 14.09765625 C0.8171875 14.09765625 -2.4828125 14.09765625 -5.8828125 14.09765625 C-5.8828125 13.10765625 -5.8828125 12.11765625 -5.8828125 11.09765625 C-2.5828125 11.09765625 0.7171875 11.09765625 4.1171875 11.09765625 C4.1171875 8.78765625 4.1171875 6.47765625 4.1171875 4.09765625 C0.1571875 4.09765625 -3.8028125 4.09765625 -7.8828125 4.09765625 C-7.8828125 3.10765625 -7.8828125 2.11765625 -7.8828125 1.09765625 C-5.16879956 -0.25935022 -3.03434934 -0.01472985 0 0 Z " fill="#D6E3EF" transform="translate(135.8828125,43.90234375)"/>
<path d="M0 0 C11.55 0 23.1 0 35 0 C35 12.21 35 24.42 35 37 C29.410625 37.020625 23.82125 37.04125 18.0625 37.0625 C16.29656494 37.071604 14.53062988 37.08070801 12.71118164 37.09008789 C11.31917395 37.09300714 9.92716541 37.09555567 8.53515625 37.09765625 C7.80615112 37.10277222 7.077146 37.10788818 6.3260498 37.11315918 C4.55029924 37.11347011 2.77465792 37.06228515 1 37 C0 36 0 36 -0.11352539 32.58178711 C-0.11336628 31.06363012 -0.10767226 29.54546771 -0.09765625 28.02734375 C-0.0962413 27.22970108 -0.09482635 26.43205841 -0.09336853 25.61024475 C-0.08775316 23.05262565 -0.07519812 20.49509282 -0.0625 17.9375 C-0.05748698 16.20768355 -0.05292373 14.47786574 -0.04882812 12.74804688 C-0.03862791 8.49863761 -0.01905568 4.24941584 0 0 Z M1 1 C1.33 3.31 1.66 5.62 2 8 C6.29 8 10.58 8 15 8 C15 10.31 15 12.62 15 15 C11.7 15 8.4 15 5 15 C5 15.99 5 16.98 5 18 C8.3 18 11.6 18 15 18 C15 20.97 15 23.94 15 27 C11.04 27 7.08 27 3 27 C0.7018576 30.8509288 0.7018576 30.8509288 1 35 C11.89 35 22.78 35 34 35 C34 23.78 34 12.56 34 1 C23.11 1 12.22 1 1 1 Z " fill="#5188BC" transform="translate(125,40)"/>
<path d="M0 0 C6.6 0 13.2 0 20 0 C20 1.65 20 3.3 20 5 C15.38 5.33 10.76 5.66 6 6 C5.67 8.97 5.34 11.94 5 15 C9.29 15 13.58 15 18 15 C18 16.65 18 18.3 18 20 C13.71 20 9.42 20 5 20 C5.33 23.3 5.66 26.6 6 30 C12.93 30.495 12.93 30.495 20 31 C20 32.65 20 34.3 20 36 C13.4 36 6.8 36 0 36 C0 24.12 0 12.24 0 0 Z " fill="#ECF2F7" transform="translate(226,230)"/>
<path d="M0 0 C1.64574566 -0.02688151 3.29161413 -0.04634123 4.9375 -0.0625 C5.85402344 -0.07410156 6.77054688 -0.08570313 7.71484375 -0.09765625 C10 0 10 0 11 1 C11.16966065 4.58172474 11.29742324 8.15679782 11.34179688 11.7421875 C11.41664351 16.28515344 11.41664351 16.28515344 13.79296875 19.9765625 C18.01563999 21.93468615 21.87975901 22.16890142 26.515625 22.31640625 C27.76601562 22.35830078 29.01640625 22.40019531 30.3046875 22.44335938 C31.60664063 22.48267578 32.90859375 22.52199219 34.25 22.5625 C35.56742188 22.60568359 36.88484375 22.64886719 38.2421875 22.69335938 C41.49468788 22.79941917 44.74726392 22.90148024 48 23 C48 24.65 48 26.3 48 28 C43.67669221 28.0496011 39.35353715 28.0858144 35.0300293 28.10986328 C33.56059888 28.11989352 32.09118829 28.13352101 30.62182617 28.15087891 C28.50434463 28.17525898 26.38712801 28.18651286 24.26953125 28.1953125 C22.36071167 28.21102295 22.36071167 28.21102295 20.41333008 28.22705078 C17.0999181 28.00664644 14.89198333 27.61227652 12 26 C11.67 25.01 11.34 24.02 11 23 C7.37886236 24.2572772 7.37886236 24.2572772 4.4375 26.625 C3 28 3 28 -1 28 C-0.8125 25.8125 -0.8125 25.8125 0 23 C0.825 22.34 1.65 21.68 2.5 21 C6.42973006 16.28432393 5.90398584 10.96160633 6 5 C4.35 5 2.7 5 1 5 C0.67 3.35 0.34 1.7 0 0 Z " fill="#D7E3EF" transform="translate(191,53)"/>
<path d="M0 0 C2.55949546 1.85342775 2.97918798 2.93756393 4 6 C4.14821529 8.63937224 4.23097341 11.23506123 4.25 13.875 C4.270625 14.58269531 4.29125 15.29039062 4.3125 16.01953125 C4.34584584 20.49621067 3.98064955 23.56591831 1 27 C-1.79965679 27.66913403 -4.08800141 27.23868841 -7 27 C-12.42187323 20.22265847 -11.56994616 12.25020432 -11 4 C-8.79826888 -0.40346224 -4.49662778 -0.47836466 0 0 Z " fill="#155FA4" transform="translate(157,235)"/>
<path d="M0 0 C2.475 0.495 2.475 0.495 5 1 C4.67 3.64 4.34 6.28 4 9 C3.34 9 2.68 9 2 9 C1.67 11.31 1.34 13.62 1 16 C0.34 16 -0.32 16 -1 16 C-1.12375 16.721875 -1.2475 17.44375 -1.375 18.1875 C-1.9904931 20.95721894 -2.88444374 23.3970354 -4 26 C-4.66 26 -5.32 26 -6 26 C-6.0825 26.78375 -6.165 27.5675 -6.25 28.375 C-7.29455203 33.42366813 -8.72879733 39.76419269 -12.50390625 43.48046875 C-14.47655596 45.48402159 -15.11449619 47.49208254 -16.0625 50.125 C-17.78249337 54.89124668 -17.78249337 54.89124668 -20 56 C-19.34 53.36 -18.68 50.72 -18 48 C-19.485 48.495 -19.485 48.495 -21 49 C-22 46 -22 46 -20.59375 42.76953125 C-19.90423254 41.44611075 -19.20568859 40.12736873 -18.5 38.8125 C-15.48906465 33.01452793 -12.66089487 27.18246688 -10.0625 21.1875 C-9.76859375 20.51243408 -9.4746875 19.83736816 -9.171875 19.1418457 C-8.01094328 16.44962578 -6.92762973 13.78288918 -6 11 C-5.34 11 -4.68 11 -4 11 C-3.896875 9.9275 -3.79375 8.855 -3.6875 7.75 C-3.02599507 4.14179128 -2.42516579 2.63604977 0 0 Z M0 2 C1 5 1 5 1 5 Z " fill="#2B6FAD" transform="translate(331,162)"/>
<path d="M0 0 C7.92 0 15.84 0 24 0 C24 1.98 24 3.96 24 6 C20.7 6 17.4 6 14 6 C14 15.9 14 25.8 14 36 C12.35 36 10.7 36 9 36 C9 25.77 9 15.54 9 5 C6.03 5 3.06 5 0 5 C0 3.35 0 1.7 0 0 Z " fill="#F4F8FA" transform="translate(199,230)"/>
<path d="M0 0 C2.475 0.495 2.475 0.495 5 1 C5 2.32 5 3.64 5 5 C7.31 5.33 9.62 5.66 12 6 C11.67 7.65 11.34 9.3 11 11 C10.04738281 11.06058594 9.09476563 11.12117188 8.11328125 11.18359375 C6.85902344 11.26738281 5.60476562 11.35117187 4.3125 11.4375 C3.07113281 11.51871094 1.82976562 11.59992187 0.55078125 11.68359375 C-2.38180337 11.94491317 -5.13441617 12.34798379 -8 13 C-8 11.68 -8 10.36 -8 9 C-12.29 9 -16.58 9 -21 9 C-21 8.34 -21 7.68 -21 7 C-18.36 7 -15.72 7 -13 7 C-13.33 5.02 -13.66 3.04 -14 1 C-12.35 1.33 -10.7 1.66 -9 2 C-9 3.65 -9 5.3 -9 7 C-6.08961458 6.97474816 -6.08961458 6.97474816 -3 6 C-1.06530151 3.04928156 -1.06530151 3.04928156 0 0 Z " fill="#D9E5F0" transform="translate(227,34)"/>
<path d="M0 0 C0.33 0 0.66 0 1 0 C1.04254356 1.99954746 1.04080783 4.00041636 1 6 C0 7 0 7 -2.94140625 7.09765625 C-4.73384766 7.08025391 -4.73384766 7.08025391 -6.5625 7.0625 C-8.35880859 7.04896484 -8.35880859 7.04896484 -10.19140625 7.03515625 C-11.11824219 7.02355469 -12.04507813 7.01195312 -13 7 C-13 8.98 -13 10.96 -13 13 C-11.84371094 12.98259766 -11.84371094 12.98259766 -10.6640625 12.96484375 C-9.66117188 12.95582031 -8.65828125 12.94679687 -7.625 12.9375 C-6.62726563 12.92589844 -5.62953125 12.91429687 -4.6015625 12.90234375 C-2 13 -2 13 0 14 C0.04241723 16.33294775 0.04092937 18.66702567 0 21 C-1 22 -1 22 -3.72265625 22.09765625 C-4.82480469 22.08605469 -5.92695313 22.07445312 -7.0625 22.0625 C-8.71958984 22.04896484 -8.71958984 22.04896484 -10.41015625 22.03515625 C-11.26480469 22.02355469 -12.11945313 22.01195312 -13 22 C-13 24.64 -13 27.28 -13 30 C-8.38 30 -3.76 30 1 30 C1 32.31 1 34.62 1 37 C-5.93 37 -12.86 37 -20 37 C-20 36.67 -20 36.34 -20 36 C-13.4 36 -6.8 36 0 36 C0 34.35 0 32.7 0 31 C-0.99902344 31.01160156 -1.99804688 31.02320313 -3.02734375 31.03515625 C-4.31769531 31.04417969 -5.60804688 31.05320312 -6.9375 31.0625 C-8.22527344 31.07410156 -9.51304687 31.08570313 -10.83984375 31.09765625 C-14 31 -14 31 -15 30 C-15.14257189 26.66381769 -15.04228157 23.34024394 -15 20 C-10.71 20 -6.42 20 -2 20 C-2 18.35 -2 16.7 -2 15 C-6.29 15 -10.58 15 -15 15 C-15.09765625 8.06640625 -15.09765625 8.06640625 -15 6 C-14 5 -14 5 -10.83984375 4.90234375 C-8.90818359 4.91974609 -8.90818359 4.91974609 -6.9375 4.9375 C-5.64714844 4.94652344 -4.35679687 4.95554688 -3.02734375 4.96484375 C-2.02832031 4.97644531 -1.02929688 4.98804688 0 5 C0 3.35 0 1.7 0 0 Z " fill="#4882B8" transform="translate(246,230)"/>
<path d="M0 0 C15.69927268 -0.13553629 31.32185453 0.16831508 47 1 C47 1.33 47 1.66 47 2 C40.4 2 33.8 2 27 2 C27 13.88 27 25.76 27 38 C26.34 38 25.68 38 25 38 C24.67 26.12 24.34 14.24 24 2 C16.08 2 8.16 2 0 2 C0 1.34 0 0.68 0 0 Z " fill="#427EB6" transform="translate(199,228)"/>
<path d="M0 0 C4.62 0 9.24 0 14 0 C13.34 0.66 12.68 1.32 12 2 C11.73810929 4.70345413 11.73810929 4.70345413 11.83984375 7.84765625 C11.85080078 9.00974609 11.86175781 10.17183594 11.87304688 11.36914062 C11.89431641 12.58794922 11.91558594 13.80675781 11.9375 15.0625 C11.97176587 17.4699945 12.00194426 19.87755189 12.02734375 22.28515625 C12.05429321 23.89209351 12.05429321 23.89209351 12.08178711 25.53149414 C12 28 12 28 11 29 C11.99 29.66 12.98 30.32 14 31 C9.6250563 31.05826088 5.25021302 31.09368457 0.875 31.125 C-0.98125 31.15013672 -0.98125 31.15013672 -2.875 31.17578125 C-4.07382813 31.18222656 -5.27265625 31.18867187 -6.5078125 31.1953125 C-7.60754395 31.20578613 -8.70727539 31.21625977 -9.84033203 31.22705078 C-13.18456942 30.98673701 -15.87708695 30.18909337 -19 29 C-17.68 28.34 -16.36 27.68 -15 27 C-14.67 27.33 -14.34 27.66 -14 28 C-12.30441274 28.09932153 -10.60474253 28.13080007 -8.90625 28.1328125 C-7.87628906 28.13410156 -6.84632813 28.13539062 -5.78515625 28.13671875 C-4.70105469 28.13285156 -3.61695313 28.12898438 -2.5 28.125 C-0.87384766 28.13080078 -0.87384766 28.13080078 0.78515625 28.13671875 C1.81511719 28.13542969 2.84507812 28.13414063 3.90625 28.1328125 C4.85822266 28.13168457 5.81019531 28.13055664 6.79101562 28.12939453 C8.97452138 28.24699456 8.97452138 28.24699456 10 27 C10.15764405 25.22130274 10.25100677 23.43681524 10.31640625 21.65234375 C10.35830078 20.57275391 10.40019531 19.49316406 10.44335938 18.38085938 C10.48267578 17.24455078 10.52199219 16.10824219 10.5625 14.9375 C10.62727539 13.22723633 10.62727539 13.22723633 10.69335938 11.48242188 C10.79982738 8.65510492 10.90045262 5.82756908 11 3 C7.04 3 3.08 3 -1 3 C-0.67 2.01 -0.34 1.02 0 0 Z " fill="#2E70AD" transform="translate(224,45)"/>
<path d="M0 0 C8.75 -0.125 8.75 -0.125 11 1 C11.125 4.375 11.125 4.375 11 8 C9 10 9 10 6.8359375 10.1953125 C4.55729167 10.13020833 2.27864583 10.06510417 0 10 C0 6.7 0 3.4 0 0 Z " fill="#2369A9" transform="translate(119,235)"/>
<path d="M0 0 C10.89 0 21.78 0 33 0 C33 1.32 33 2.64 33 4 C22.11 4 11.22 4 0 4 C0 2.68 0 1.36 0 0 Z " fill="#145FA4" transform="translate(126,71)"/>
<path d="M0 0 C0.33 0 0.66 0 1 0 C1 1.98 1 3.96 1 6 C1.66 6 2.32 6 3 6 C3 6.66 3 7.32 3 8 C6.3 8 9.6 8 13 8 C13 9.98 13 11.96 13 14 C9.37 14.33 5.74 14.66 2 15 C2 15.66 2 16.32 2 17 C1.34 17 0.68 17 0 17 C0 11.39 0 5.78 0 0 Z " fill="#06559E" transform="translate(126,51)"/>
<path d="M0 0 C1.54204102 0.00966797 1.54204102 0.00966797 3.11523438 0.01953125 C4.18708984 0.03628906 5.25894531 0.05304688 6.36328125 0.0703125 C7.44673828 0.07933594 8.53019531 0.08835937 9.64648438 0.09765625 C12.32313835 0.1212391 14.99934922 0.15415124 17.67578125 0.1953125 C17.67578125 1.5153125 17.67578125 2.8353125 17.67578125 4.1953125 C14.28002063 4.25362037 10.88438975 4.28901196 7.48828125 4.3203125 C6.52857422 4.33707031 5.56886719 4.35382813 4.58007812 4.37109375 C3.64873047 4.37753906 2.71738281 4.38398437 1.7578125 4.390625 C0.90421143 4.40109863 0.05061035 4.41157227 -0.82885742 4.42236328 C-3.6314869 4.16735444 -5.77151294 3.35072672 -8.32421875 2.1953125 C-4.97302356 -0.03881763 -3.90644325 -0.04316512 0 0 Z " fill="#F5F8FA" transform="translate(221.32421875,76.8046875)"/>
<path d="M0 0 C6.6 0 13.2 0 20 0 C20 0.33 20 0.66 20 1 C16.04 1 12.08 1 8 1 C8 1.66 8 2.32 8 3 C7.18958252 3.05534912 6.37916504 3.11069824 5.54418945 3.16772461 C2.47075431 3.37789832 -0.60264605 3.58857255 -3.67602539 3.79956055 C-5.63360077 3.93380379 -7.59121394 4.06749564 -9.54882812 4.20117188 C-17.70247993 4.76134643 -25.8523068 5.35891814 -34 6 C-31.06713082 3.06713082 -27.70650702 3.26992087 -23.75 2.875 C-22.94965332 2.79008301 -22.14930664 2.70516602 -21.32470703 2.61767578 C-14.19878694 1.91400356 -7.1600198 1.79279685 0 2 C0 1.34 0 0.68 0 0 Z " fill="#6E9CC6" transform="translate(136,16)"/>
<path d="M0 0 C2.42869909 3.64304864 2.25675675 6.30722339 2.1953125 10.51171875 C2.1924826 11.23994339 2.18965271 11.96816803 2.18673706 12.71846008 C2.17555257 15.04164137 2.15045166 17.36443547 2.125 19.6875 C2.11496794 21.2636663 2.10584248 22.83983865 2.09765625 24.41601562 C2.07561896 28.27749267 2.04110141 32.13868071 2 36 C-0.97 36 -3.94 36 -7 36 C-6.67 35.34 -6.34 34.68 -6 34 C-4.02 34 -2.04 34 0 34 C0 22.78 0 11.56 0 0 Z " fill="#FBFCFD" transform="translate(160,43)"/>
<path d="M0 0 C3.03901272 2.56528426 4.24652224 5.42319941 5.75 9.0625 C6.19859375 10.12597656 6.6471875 11.18945312 7.109375 12.28515625 C8 15 8 15 7 17 C4 17 4 17 1 16 C-0.16796875 14.15234375 -0.16796875 14.15234375 -1.1875 11.9375 C-1.53167969 11.20402344 -1.87585937 10.47054687 -2.23046875 9.71484375 C-2.48441406 9.14894531 -2.73835938 8.58304688 -3 8 C-2.34 7.67 -1.68 7.34 -1 7 C-0.59270772 4.67843403 -0.25561323 2.3431213 0 0 Z " fill="#2C6FAD" transform="translate(35,189)"/>
<path d="M0 0 C0.33 0 0.66 0 1 0 C1.04254356 1.99954746 1.04080783 4.00041636 1 6 C0 7 0 7 -2.94140625 7.09765625 C-4.73384766 7.08025391 -4.73384766 7.08025391 -6.5625 7.0625 C-8.35880859 7.04896484 -8.35880859 7.04896484 -10.19140625 7.03515625 C-11.11824219 7.02355469 -12.04507813 7.01195312 -13 7 C-13 8.98 -13 10.96 -13 13 C-12.21753906 12.98839844 -11.43507812 12.97679687 -10.62890625 12.96484375 C-9.61699219 12.95582031 -8.60507813 12.94679687 -7.5625 12.9375 C-6.55316406 12.92589844 -5.54382813 12.91429687 -4.50390625 12.90234375 C-2 13 -2 13 -1 14 C-0.95919217 15.99958364 -0.95745644 18.00045254 -1 20 C-1.33 20 -1.66 20 -2 20 C-2 18.35 -2 16.7 -2 15 C-6.29 15 -10.58 15 -15 15 C-15.09765625 8.06640625 -15.09765625 8.06640625 -15 6 C-14 5 -14 5 -10.83984375 4.90234375 C-8.90818359 4.91974609 -8.90818359 4.91974609 -6.9375 4.9375 C-5.64714844 4.94652344 -4.35679687 4.95554688 -3.02734375 4.96484375 C-2.02832031 4.97644531 -1.02929688 4.98804688 0 5 C0 3.35 0 1.7 0 0 Z " fill="#5289BC" transform="translate(246,230)"/>
<path d="M0 0 C1.65322266 0.01740234 1.65322266 0.01740234 3.33984375 0.03515625 C4.99693359 0.04869141 4.99693359 0.04869141 6.6875 0.0625 C7.54214844 0.07410156 8.39679688 0.08570312 9.27734375 0.09765625 C9.27734375 0.42765625 9.27734375 0.75765625 9.27734375 1.09765625 C5.64734375 1.09765625 2.01734375 1.09765625 -1.72265625 1.09765625 C-1.72265625 1.75765625 -1.72265625 2.41765625 -1.72265625 3.09765625 C7.18734375 3.09765625 16.09734375 3.09765625 25.27734375 3.09765625 C25.60734375 2.43765625 25.93734375 1.77765625 26.27734375 1.09765625 C25.94734375 2.41765625 25.61734375 3.73765625 25.27734375 5.09765625 C16.03734375 5.09765625 6.79734375 5.09765625 -2.72265625 5.09765625 C-3.05265625 3.77765625 -3.38265625 2.45765625 -3.72265625 1.09765625 C-2.72265625 0.09765625 -2.72265625 0.09765625 0 0 Z " fill="#B5CDE2" transform="translate(130.72265625,66.90234375)"/>
<path d="M0 0 C6.27 0 12.54 0 19 0 C18.67 1.32 18.34 2.64 18 4 C12.39 4 6.78 4 1 4 C0.67 2.68 0.34 1.36 0 0 Z " fill="#4680B7" transform="translate(212,66)"/>
<path d="M0 0 C0.99 0.495 0.99 0.495 2 1 C2 1.99 2 2.98 2 4 C2.66 4 3.32 4 4 4 C6.48852941 11.98403186 7.32234049 19.49010251 7.375 27.8125 C7.38853516 28.69510498 7.40207031 29.57770996 7.41601562 30.48706055 C7.37628879 36.35173455 6.31132571 40.61466932 4 46 C3.2716074 48.3202403 2.63589459 50.65208151 2 53 C0.6194913 49.23331402 1.40431841 46.55210827 2.4375 42.75 C2.72496094 41.67234375 3.01242187 40.5946875 3.30859375 39.484375 C3.53675781 38.66453125 3.76492188 37.8446875 4 37 C4.66 37 5.32 37 6 37 C6 30.73 6 24.46 6 18 C5.34 18 4.68 18 4 18 C3.67 13.71 3.34 9.42 3 5 C2.34 5 1.68 5 1 5 C0.67 3.35 0.34 1.7 0 0 Z " fill="#C7D9E9" transform="translate(333,71)"/>
<path d="M0 0 C1.65 0 3.3 0 5 0 C5 1.65 5 3.3 5 5 C5.66 5 6.32 5 7 5 C7 5.66 7 6.32 7 7 C7.66 7 8.32 7 9 7 C9 5.35 9 3.7 9 2 C11 4 11 4 12 9 C8.04 9 4.08 9 0 9 C0 6.03 0 3.06 0 0 Z " fill="#8EB2D3" transform="translate(144,59)"/>
<path d="M0 0 C9.9 0 19.8 0 30 0 C29.67 0.66 29.34 1.32 29 2 C20.42 2.33 11.84 2.66 3 3 C2.34 4.32 1.68 5.64 1 7 C0.67 4.69 0.34 2.38 0 0 Z " fill="#09579F" transform="translate(126,41)"/>
<path d="M0 0 C0.20367187 0.64453125 0.40734375 1.2890625 0.6171875 1.953125 C1.8667935 4.31153872 1.8667935 4.31153872 4.8203125 4.609375 C5.91085938 4.65578125 7.00140625 4.7021875 8.125 4.75 C9.76855469 4.83507812 9.76855469 4.83507812 11.4453125 4.921875 C12.28835937 4.94765625 13.13140625 4.9734375 14 5 C14 5.66 14 6.32 14 7 C5.09 7 -3.82 7 -13 7 C-13 6.34 -13 5.68 -13 5 C-12.22914063 4.97421875 -11.45828125 4.9484375 -10.6640625 4.921875 C-9.66117188 4.86515625 -8.65828125 4.8084375 -7.625 4.75 C-6.62726563 4.70359375 -5.62953125 4.6571875 -4.6015625 4.609375 C-1.8473523 4.27839115 -1.8473523 4.27839115 -0.6484375 1.953125 C-0.43445313 1.30859375 -0.22046875 0.6640625 0 0 Z " fill="#FBFCFD" transform="translate(142,63)"/>
<path d="M0 0 C2.1875 -0.375 2.1875 -0.375 5 0 C7.875 2.75 7.875 2.75 10 6 C9.8125 8.375 9.8125 8.375 9 10 C5.49849196 9.70820766 4.21713533 9.21713533 1.6875 6.6875 C0 4 0 4 0 0 Z " fill="#D3E1EE" transform="translate(193,36)"/>
<path d="M0 0 C0.5625 1.9375 0.5625 1.9375 1 4 C0.67 4.33 0.34 4.66 0 5 C0.99 5.66 1.98 6.32 3 7 C-4.59 7 -12.18 7 -20 7 C-19.34 6.01 -18.68 5.02 -18 4 C-15.06402461 3.61615491 -12.31972627 3.396157 -9.375 3.3125 C-8.17230469 3.26125977 -8.17230469 3.26125977 -6.9453125 3.20898438 C-4.96403682 3.12643122 -2.98203963 3.06154084 -1 3 C-0.67 2.01 -0.34 1.02 0 0 Z " fill="#E6EEF5" transform="translate(231,66)"/>
<path d="M0 0 C1.32 0.33 2.64 0.66 4 1 C3.01 1 2.02 1 1 1 C1.33 2.98 1.66 4.96 2 7 C-0.64 7 -3.28 7 -6 7 C-6 7.66 -6 8.32 -6 9 C-1.71 9 2.58 9 7 9 C6.67 10.65 6.34 12.3 6 14 C5.67 13.01 5.34 12.02 5 11 C1.04 11 -2.92 11 -7 11 C-7 9.35 -7 7.7 -7 6 C-4.69 6 -2.38 6 0 6 C0 4.02 0 2.04 0 0 Z " fill="#9EBDD9" transform="translate(212,34)"/>
<path d="M0 0 C5.61 0 11.22 0 17 0 C17 0.99 17 1.98 17 3 C11.39 3 5.78 3 0 3 C0 2.01 0 1.02 0 0 Z " fill="#4580B8" transform="translate(213,59)"/>
<path d="M0 0 C5.61 0 11.22 0 17 0 C17 0.99 17 1.98 17 3 C11.39 3 5.78 3 0 3 C0 2.01 0 1.02 0 0 Z " fill="#447FB7" transform="translate(213,52)"/>
<path d="M0 0 C7.92 0 15.84 0 24 0 C24 1.98 24 3.96 24 6 C21.03 6 18.06 6 15 6 C15 5.34 15 4.68 15 4 C17.31 4 19.62 4 22 4 C22 3.01 22 2.02 22 1 C14.74 1 7.48 1 0 1 C0 0.67 0 0.34 0 0 Z " fill="#B6CDE3" transform="translate(199,230)"/>
<path d="M0 0 C0.93045933 2.55144824 1.08564091 3.74006478 0.22265625 6.359375 C-0.16019531 7.14828125 -0.54304688 7.9371875 -0.9375 8.75 C-1.31777344 9.54921875 -1.69804687 10.3484375 -2.08984375 11.171875 C-2.39019531 11.77515625 -2.69054687 12.3784375 -3 13 C-4.50559539 11.03617993 -5.89131683 9.21736634 -7 7 C-6.0625 4.375 -6.0625 4.375 -5 2 C-3.35 2 -1.7 2 0 2 C0 1.34 0 0.68 0 0 Z " fill="#1962A5" transform="translate(313,208)"/>
<path d="M0 0 C0.33 0.99 0.66 1.98 1 3 C0.01 3.495 0.01 3.495 -1 4 C-1 5.98 -1 7.96 -1 10 C-1.66 10 -2.32 10 -3 10 C-3 9.34 -3 8.68 -3 8 C-3.66 8 -4.32 8 -5 8 C-5 6.35 -5 4.7 -5 3 C-6.65 3 -8.3 3 -10 3 C-10 2.67 -10 2.34 -10 2 C-6.7 2 -3.4 2 0 2 C0 1.34 0 0.68 0 0 Z " fill="#C3D6E7" transform="translate(154,56)"/>
<path d="M0 0 C0.99 0.33 1.98 0.66 3 1 C1.71937515 2.7074998 0.38232443 4.37373596 -1 6 C-1.66 6 -2.32 6 -3 6 C-3.66 7.32 -4.32 8.64 -5 10 C-5.99 9.67 -6.98 9.34 -8 9 C-2.71428571 2.57142857 -2.71428571 2.57142857 0 0 Z " fill="#3777B1" transform="translate(28,34)"/>
<path d="M0 0 C1.32 0 2.64 0 4 0 C4 2.31 4 4.62 4 7 C2.68 7 1.36 7 0 7 C0 4.69 0 2.38 0 0 Z " fill="#135EA3" transform="translate(145,59)"/>
<path d="M0 0 C0.33 0.66 0.66 1.32 1 2 C-0.07192184 3.3218362 -1.15802695 4.63217927 -2.25 5.9375 C-2.85328125 6.66839844 -3.4565625 7.39929688 -4.078125 8.15234375 C-6.10741134 10.10326334 -7.254407 10.61731779 -10 11 C-9.67 10.34 -9.34 9.68 -9 9 C-8.34 9 -7.68 9 -7 9 C-6.6596875 8.1646875 -6.6596875 8.1646875 -6.3125 7.3125 C-4.64103234 4.36753316 -2.44723648 2.31843456 0 0 Z " fill="#C0D4E6" transform="translate(239,292)"/>
<path d="M0 0 C0 1.32 0 2.64 0 4 C-4.29 3.67 -8.58 3.34 -13 3 C-13 2.67 -13 2.34 -13 2 C-11.39658445 1.66307215 -9.79223445 1.33058907 -8.1875 1 C-7.29417969 0.814375 -6.40085938 0.62875 -5.48046875 0.4375 C-3 0 -3 0 0 0 Z " fill="#E2EBF3" transform="translate(223,46)"/>
<path d="M0 0 C2.475 0.495 2.475 0.495 5 1 C5 2.65 5 4.3 5 6 C3.68 6 2.36 6 1 6 C0.67 4.02 0.34 2.04 0 0 Z " fill="#DFE9F2" transform="translate(213,35)"/>
<path d="M0 0 C1.32 0.33 2.64 0.66 4 1 C2.02 3.31 0.04 5.62 -2 8 C-2.66 7.67 -3.32 7.34 -4 7 C-2.92598892 4.08482708 -2.22189824 2.22189824 0 0 Z " fill="#C3D6E8" transform="translate(146,230)"/>
<path d="M0 0 C0.33 0 0.66 0 1 0 C1.33266291 6.20970773 0.45029331 10.28264895 -2 16 C-3.3805087 12.23331402 -2.59568159 9.55210827 -1.5625 5.75 C-1.27503906 4.67234375 -0.98757813 3.5946875 -0.69140625 2.484375 C-0.46324219 1.66453125 -0.23507812 0.8446875 0 0 Z " fill="#6B99C5" transform="translate(337,108)"/>
<path d="M0 0 C-2.52480693 2.52480693 -4.13823034 2.55738633 -7.625 3.125 C-8.62789062 3.29257812 -9.63078125 3.46015625 -10.6640625 3.6328125 C-11.43492187 3.75398438 -12.20578125 3.87515625 -13 4 C-11.72807637 1.45615274 -10.80051531 1.30631844 -8.1875 0.3125 C-7.50042969 0.04050781 -6.81335938 -0.23148437 -6.10546875 -0.51171875 C-3.70623504 -1.06812731 -2.3105636 -0.77364938 0 0 Z " fill="#5E91C0" transform="translate(214,327)"/>
<path d="M0 0 C5.52677733 -0.19392201 9.75614911 0.2520497 15 2 C15 2.66 15 3.32 15 4 C10 3 5 2 0 1 C0 0.67 0 0.34 0 0 Z " fill="#588EBE" transform="translate(274,17)"/>
<path d="M0 0 C1.46795245 3.81667636 0.59626457 6.32859149 -1 10 C-1.99 10.66 -2.98 11.32 -4 12 C-2.66666667 8 -1.33333333 4 0 0 Z " fill="#6294C2" transform="translate(325,173)"/>
<path d="M0 0 C1.57561912 3.15123823 0.69813146 5.62569792 0 9 C-1.5625 11.4375 -1.5625 11.4375 -3 13 C-2.45144652 8.428721 -1.58255197 4.32564205 0 0 Z " fill="#84AACF" transform="translate(344,120)"/>
<path d="M0 0 C0.33 1.32 0.66 2.64 1 4 C-0.98 5.32 -2.96 6.64 -5 8 C-3.62845496 5.04590299 -2.01136276 2.55991624 0 0 Z " fill="#538ABC" transform="translate(32,52)"/>
</svg>
